<svg width="8" height="11" viewBox="0 0 8 11" fill="none" xmlns="http://www.w3.org/2000/svg">
<path d="M6 0H2C1.60217 0 1.22064 0.158035 0.939336 0.43934C0.658032 0.720644 0.499996 1.10218 0.499996 1.5V9.5C0.499647 9.58811 0.522584 9.67474 0.566485 9.75113C0.610387 9.82752 0.673694 9.89095 0.749996 9.935C0.826006 9.97888 0.912228 10.002 0.999996 10.002C1.08776 10.002 1.17399 9.97888 1.25 9.935L4 8.345L6.75 9.935C6.8262 9.97819 6.91241 10.0006 7 10C7.08758 10.0006 7.17379 9.97819 7.25 9.935C7.3263 9.89095 7.38961 9.82752 7.43351 9.75113C7.47741 9.67474 7.50035 9.58811 7.5 9.5V1.5C7.5 1.10218 7.34196 0.720644 7.06066 0.43934C6.77935 0.158035 6.39782 0 6 0ZM6.5 8.635L4.25 7.335C4.17399 7.29112 4.08776 7.26801 4 7.26801C3.91223 7.26801 3.82601 7.29112 3.75 7.335L1.5 8.635V1.5C1.5 1.36739 1.55267 1.24021 1.64644 1.14645C1.74021 1.05268 1.86739 1 2 1H6C6.1326 1 6.25978 1.05268 6.35355 1.14645C6.44732 1.24021 6.5 1.36739 6.5 1.5V8.635Z" fill="#75163F"/>
</svg>
